{"glyphs":{":":{"x_min":0,"x_max":304,"ha":304,"o":"m 162 2 l 148 2 q 120 2 98 21 q 77 39 77 64 l 76 69 l 76 83 q 77 88 77 91 q 77 112 98 130 q 120 148 146 148 l 163 148 q 186 148 208 132 q 231 115 231 89 l 232 77 l 232 69 q 231 62 231 58 q 231 38 210 20 q 189 2 162 2 z m 139 306 q 115 306 96 327 q 77 349 77 375 l 77 387 q 77 416 98 434 q 119 452 146 452 l 159 452 q 190 452 211 431 q 232 410 232 379 l 232 371 q 232 346 215 326 q 198 306 170 306 l 166 305 l 147 305 q 142 306 139 306 z"},"$":{"x_min":0,"x_max":550,"ha":550,"o":"m 385 160 q 385 190 363 215 q 328 256 303 256 l 300 256 q 296 256 296 203 l 296 144 l 296 137 q 296 129 296 121 l 295 114 q 295 110 295 106 l 295 96 l 295 67 q 295 59 302 59 l 306 59 q 332 59 358 84 q 384 110 384 139 l 385 145 z m 162 518 l 162 502 q 162 479 188 448 q 214 418 239 418 l 241 418 q 245 418 245 462 l 245 508 l 245 515 l 245 536 l 246 543 q 246 546 246 550 l 246 559 l 246 585 q 246 594 239 594 l 235 594 q 231 593 229 593 q 206 593 184 567 q 162 542 162 518 z m 82 43 q 50 69 50 118 q 50 167 78 167 q 94 167 120 132 q 146 98 168 81 q 190 65 210 65 q 230 65 237 85 q 243 106 243 177 q 243 249 222 275 q 218 280 169 311 q 119 342 97 368 q 60 412 60 475 q 60 538 109 587 q 139 619 187 635 l 202 640 q 232 648 233 649 q 243 655 252 684 q 261 712 278 712 q 287 712 312 687 q 336 661 385 638 q 433 616 442 605 q 463 583 463 537 q 463 507 443 507 q 432 507 393 547 q 354 587 328 587 q 312 587 305 565 q 298 544 298 460 q 298 420 311 405 q 313 402 378 363 q 443 323 469 285 q 494 247 494 188 q 494 130 454 81 q 414 32 339 11 q 306 1 298 -6 q 291 -14 286 -47 q 282 -80 263 -80 q 245 -80 233 -50 q 221 -21 204 -8 q 187 6 139 21 q 92 35 82 43 z"},"?":{"x_min":0,"x_max":487,"ha":487,"o":"m 220 -7 l 212 -7 q 179 -7 158 14 q 138 34 138 61 l 138 71 q 138 94 154 114 q 171 133 196 133 l 208 135 l 219 135 q 247 135 268 117 q 289 99 289 77 l 291 69 l 291 53 q 290 48 290 45 q 290 27 270 10 q 250 -7 220 -7 z m 215 204 q 169 204 169 279 q 169 323 228 391 q 286 459 286 511 q 286 542 269 559 q 251 576 228 576 q 204 576 165 543 q 126 510 104 510 q 82 510 71 526 q 60 542 60 567 q 60 616 104 645 q 149 674 215 674 l 234 674 q 271 674 310 660 q 349 646 379 618 q 430 571 430 500 q 430 451 408 418 q 386 385 332 342 q 277 299 265 285 q 252 271 248 237 q 243 204 222 204 z"},"<":{"x_min":0,"x_max":568,"ha":568,"o":"m 488 24 q 479 24 439 45 q 112 213 80 232 q 61 243 61 273 q 61 303 83 317 l 250 404 q 320 441 342 452 q 364 463 420 492 q 476 522 483 522 l 490 522 q 501 522 501 488 q 501 453 466 430 q 449 419 406 397 q 363 376 319 353 l 249 317 q 172 276 172 276 q 172 272 319 195 q 466 117 468 116 q 501 95 501 67 l 501 59 q 501 24 488 24 z"},"'":{"x_min":0,"x_max":258,"ha":258,"o":"m 74 650 q 74 673 83 682 q 102 698 130 698 l 138 698 l 142 698 q 164 698 175 688 q 186 678 186 647 l 185 644 l 184 627 l 183 614 q 183 554 158 438 q 152 410 128 410 l 118 410 q 98 410 98 458 l 96 470 q 91 510 91 518 q 91 526 84 562 q 75 604 75 624 l 74 641 z"},"=":{"x_min":0,"x_max":570,"ha":570,"o":"m 521 207 l 521 187 q 521 158 506 158 l 455 158 l 444 159 l 428 159 l 401 160 l 238 160 l 227 159 l 188 159 l 177 159 l 166 159 l 139 158 l 128 158 l 118 157 l 107 157 l 86 157 l 66 157 q 54 157 54 177 l 54 202 q 54 231 73 231 l 104 231 l 109 231 l 482 231 l 503 231 q 521 231 521 207 z m 188 326 q 89 326 67 331 q 54 334 54 353 l 54 384 q 54 408 68 410 q 102 416 302 416 l 318 416 l 380 416 l 386 416 l 503 412 q 521 412 521 390 l 521 357 q 521 330 492 330 l 481 329 l 471 329 l 384 326 z"},"a":{"x_min":0,"x_max":519,"ha":519,"o":"m 293 198 q 293 215 282 215 l 276 215 q 233 215 198 186 q 164 156 164 126 l 164 111 q 164 93 176 79 q 188 65 202 65 l 207 64 l 218 64 q 254 64 280 100 q 293 118 293 167 l 293 172 z m 103 307 q 58 307 58 345 q 58 384 119 419 q 181 454 258 454 q 336 454 377 414 q 418 375 418 294 l 418 283 q 417 271 417 260 l 417 249 q 417 234 416 218 q 415 203 415 191 q 415 116 425 99 q 434 82 458 73 q 482 64 482 53 q 482 31 446 13 q 410 -4 382 -4 q 353 -4 328 14 q 302 32 293 32 q 284 32 262 20 q 240 8 221 0 q 202 -8 158 -8 q 114 -8 78 25 q 42 58 42 109 q 42 161 84 197 q 126 233 221 259 q 254 268 274 280 q 294 292 294 322 q 294 353 277 370 q 260 388 230 388 q 200 388 166 347 q 131 307 103 307 z"},"L":{"x_min":0,"x_max":619,"ha":619,"o":"m 46 649 q 46 671 77 671 l 177 671 l 191 670 q 309 670 321 668 q 342 664 342 649 q 342 633 312 608 q 282 583 275 554 q 263 500 263 321 l 263 246 l 264 174 q 264 107 282 86 q 301 65 356 65 q 411 65 457 91 q 479 103 519 148 q 560 193 583 193 q 599 193 599 168 q 599 67 575 24 q 565 6 512 6 q 406 2 385 2 l 200 0 l 110 0 q 60 0 60 27 q 60 29 94 72 q 110 93 118 143 q 125 193 125 322 l 125 481 l 124 540 q 124 570 114 585 q 104 600 75 616 q 46 632 46 649 z"},"3":{"x_min":0,"x_max":550,"ha":550,"o":"m 49 79 q 49 121 90 121 q 103 121 150 85 q 198 49 247 49 q 296 49 323 87 q 351 124 351 175 q 351 225 319 256 q 299 275 279 281 q 258 288 232 291 q 206 295 197 299 q 177 309 177 326 q 177 344 227 367 q 276 390 298 417 q 320 444 320 480 q 320 516 301 538 q 283 561 239 561 q 195 561 151 526 q 107 492 95 492 q 75 492 75 518 q 75 544 87 571 q 98 597 122 611 q 185 649 273 649 q 360 649 409 613 q 458 577 458 517 q 458 449 394 390 q 361 359 361 349 q 361 347 382 337 q 403 328 420 318 q 438 308 457 284 q 491 240 491 189 q 491 89 414 30 q 337 -30 229 -30 q 143 -30 91 2 q 49 27 49 79 z"},";":{"x_min":0,"x_max":304,"ha":304,"o":"m 81 -120 l 81 -114 q 81 -110 111 -72 q 141 -34 141 -6 q 141 1 111 31 q 82 61 82 89 q 82 117 97 138 q 113 159 147 159 l 155 159 q 192 159 213 132 q 234 104 234 62 l 234 57 q 234 0 192 -62 q 173 -91 142 -114 q 110 -136 96 -136 q 81 -136 81 -120 z m 163 308 l 149 308 q 122 308 100 326 q 79 345 79 377 l 79 385 q 79 410 97 431 q 115 453 143 453 l 146 453 l 148 454 l 159 454 l 162 454 q 195 454 215 434 q 235 414 235 386 l 235 371 q 235 345 213 326 q 191 308 163 308 z"},"J":{"x_min":0,"x_max":487,"ha":487,"o":"m 244 671 l 321 671 q 408 671 419 668 q 438 664 438 650 q 438 640 414 608 q 390 577 383 540 q 376 502 376 346 q 376 189 368 133 q 359 76 329 26 q 268 -75 132 -75 q 132 -75 131 -75 q 70 -75 38 -52 q 5 -28 5 9 q 5 32 20 51 q 34 70 61 70 q 87 70 108 57 q 130 43 151 43 q 195 43 224 174 q 239 246 239 390 q 239 534 229 561 q 219 588 190 609 q 160 630 160 645 q 160 661 177 666 q 193 671 244 671 z"},"V":{"x_min":0,"x_max":701,"ha":701,"o":"m 13 644 q 13 659 36 665 q 59 670 125 670 l 143 670 q 236 670 254 665 q 280 658 280 642 q 280 638 266 617 q 251 596 251 579 q 251 533 361 222 q 376 178 385 178 q 390 178 431 282 q 472 387 495 479 q 519 571 519 587 q 519 602 500 624 q 482 646 482 647 q 482 662 501 666 q 521 670 606 670 q 690 670 690 653 l 690 644 q 690 628 656 601 q 623 574 615 558 q 607 542 571 448 q 534 354 514 304 q 495 254 459 162 q 423 70 413 47 q 391 -2 366 -2 q 315 -2 294 35 q 273 72 206 254 q 139 436 126 474 q 94 568 66 590 q 13 632 13 644 z"},"\"":{"x_min":0,"x_max":444,"ha":444,"o":"m 182 639 q 179 618 179 607 l 173 563 q 169 542 168 534 l 159 461 q 159 412 122 412 l 118 412 q 96 412 96 454 l 94 465 q 90 499 90 506 l 85 543 l 83 550 l 83 557 l 81 564 l 80 571 l 79 578 l 77 593 q 72 626 72 630 l 71 643 l 71 653 q 71 700 132 700 l 136 700 q 182 700 182 658 z m 257 656 q 257 700 318 700 l 322 700 l 325 700 q 348 700 358 689 q 368 679 368 655 l 368 642 l 368 639 l 367 625 l 365 604 q 365 516 339 433 q 333 412 308 412 l 304 412 q 281 412 281 458 q 279 473 279 476 l 275 510 l 271 539 l 271 542 l 270 550 l 269 553 l 268 561 q 268 565 265 575 l 259 624 l 258 630 l 257 640 z"},"7":{"x_min":0,"x_max":549,"ha":549,"o":"m 287 646 l 363 643 q 401 641 444 641 q 486 641 494 636 q 501 632 501 614 l 501 604 q 501 566 468 492 q 461 477 422 394 q 382 311 358 257 q 334 204 305 112 q 275 20 274 18 q 255 -21 201 -21 q 168 -21 159 -13 q 149 -5 149 23 q 149 75 262 274 q 375 473 375 512 q 375 517 365 524 q 346 538 289 538 q 231 538 192 527 q 153 516 117 495 q 81 473 66 473 q 51 473 51 500 l 51 512 q 51 573 72 623 q 83 648 106 648 l 117 647 l 139 645 q 162 642 171 642 q 180 642 202 644 q 224 646 287 646 z"},"S":{"x_min":0,"x_max":566,"ha":566,"o":"m 46 146 l 46 163 q 46 193 63 193 q 85 193 128 143 q 170 92 204 74 q 238 56 286 56 q 333 56 364 83 q 395 110 395 155 q 395 200 345 234 q 324 250 236 289 q 148 329 110 368 q 59 419 59 495 q 60 571 118 625 q 177 680 281 680 q 311 680 354 671 q 398 662 417 662 l 431 663 l 444 663 q 473 663 482 633 q 492 604 492 541 q 492 501 471 501 q 458 501 419 541 q 380 581 352 598 q 324 616 279 616 q 235 616 207 589 q 179 562 179 530 q 179 485 224 454 q 243 440 335 400 q 428 359 461 327 q 495 295 508 262 q 520 229 520 205 l 520 187 q 520 154 505 117 q 490 80 455 48 q 391 -9 280 -9 q 250 -9 195 1 q 140 12 129 12 l 102 10 q 72 10 59 42 q 46 74 46 146 z"},"}":{"x_min":0,"x_max":386,"ha":386,"o":"m 142 437 l 143 460 q 144 480 144 483 l 146 530 q 146 583 132 610 q 118 638 89 661 q 60 684 60 700 q 60 708 94 708 q 127 708 164 696 q 200 684 220 662 q 255 625 255 535 q 255 510 250 468 q 246 425 246 389 q 246 353 259 334 q 272 316 300 302 q 327 288 327 278 q 327 266 298 251 q 269 236 258 216 q 246 197 246 141 q 246 136 250 85 q 254 34 254 -1 q 254 -116 161 -147 q 123 -160 92 -160 l 81 -160 q 59 -160 59 -150 q 59 -135 88 -112 q 117 -89 132 -60 q 146 -32 146 22 l 143 128 q 143 190 155 214 q 167 238 179 248 q 191 258 207 266 q 222 273 222 274 q 222 275 195 293 q 168 312 155 338 q 142 365 142 437 z"},"Z":{"x_min":0,"x_max":647,"ha":647,"o":"m 465 93 q 498 107 540 149 q 582 191 595 191 q 615 191 615 165 q 615 140 602 84 q 588 28 579 19 q 562 3 484 3 l 466 3 q 447 2 428 2 l 328 1 l 167 1 q 85 1 74 4 q 47 11 47 33 q 47 64 81 116 q 114 168 257 369 q 400 571 400 596 q 400 606 327 606 q 254 606 197 581 q 174 570 132 532 q 91 494 80 494 q 61 494 61 522 q 61 597 77 641 q 83 657 95 663 q 107 669 319 669 l 398 670 l 475 670 q 547 670 564 664 q 582 658 582 629 q 582 600 407 348 q 232 97 232 82 q 232 67 317 67 q 402 67 465 93 z"},"x":{"x_min":0,"x_max":553,"ha":553,"o":"m 514 440 q 514 427 473 398 q 432 369 391 322 q 350 274 350 252 q 350 230 437 125 q 465 92 494 68 q 524 44 524 27 q 524 9 508 5 q 491 0 449 0 l 417 0 l 401 1 l 385 1 q 316 1 303 7 q 291 12 291 28 q 291 31 298 44 q 306 57 306 64 q 306 87 280 123 q 254 159 247 159 q 239 159 212 125 q 186 91 186 72 q 186 54 194 39 q 202 23 202 12 q 202 1 126 1 q 50 1 37 5 q 23 8 23 26 q 23 43 64 64 q 104 85 135 121 q 203 196 203 215 q 203 233 119 338 q 92 373 63 396 q 35 420 35 436 q 35 452 53 455 q 71 459 145 459 l 177 459 l 191 460 l 221 460 q 265 460 265 438 q 265 437 258 425 q 251 413 251 402 q 251 375 283 331 q 295 314 300 314 q 313 314 328 331 q 358 368 358 397 l 351 417 q 346 428 346 439 q 346 451 358 455 q 371 459 442 459 q 514 459 514 440 z"},")":{"x_min":0,"x_max":379,"ha":379,"o":"m 152 500 q 136 542 90 612 q 43 682 43 686 q 43 706 62 706 q 91 706 145 659 q 199 612 236 548 q 309 423 309 289 l 309 255 q 309 195 291 126 q 256 -7 160 -104 q 95 -169 64 -169 q 44 -169 44 -150 q 44 -143 92 -70 q 139 2 156 54 q 189 152 189 278 q 189 405 152 500 z"},"&":{"x_min":0,"x_max":787,"ha":787,"o":"m 302 67 l 322 67 q 357 67 381 87 q 405 106 405 116 l 405 119 q 405 132 325 226 q 246 320 231 320 q 209 320 190 287 q 171 254 171 226 l 171 209 q 171 152 214 110 q 256 67 302 67 z m 383 536 q 383 574 363 598 q 342 621 318 621 l 314 621 q 292 621 275 602 q 259 583 259 555 l 259 545 q 259 518 284 473 q 309 429 327 429 q 334 429 358 453 q 382 477 382 511 l 382 514 l 383 517 l 383 527 z m 140 521 q 140 577 185 619 q 231 660 300 660 q 368 660 411 625 q 454 589 454 545 q 454 500 423 441 q 392 381 392 359 q 392 336 428 301 q 464 266 505 266 q 528 266 542 293 q 546 299 551 313 l 555 325 q 560 339 561 343 q 562 346 566 362 q 569 378 578 386 q 586 393 629 393 q 672 393 697 376 q 701 373 701 365 q 701 356 675 335 q 648 314 620 266 q 591 217 591 181 q 591 146 629 114 q 650 97 682 89 q 714 81 714 65 l 714 57 q 714 51 704 45 q 670 24 593 24 q 561 24 509 40 q 458 56 446 56 q 435 56 371 30 q 307 3 253 3 q 199 3 167 15 q 136 26 106 52 q 48 103 48 180 q 48 258 128 330 q 176 372 176 394 q 176 400 158 443 q 140 486 140 521 z"},"_":{"x_min":0,"x_max":509,"ha":509,"o":"m -1 -109 l -1 -88 q -1 -71 97 -71 l 199 -71 l 205 -71 l 255 -71 q 483 -71 493 -72 q 510 -74 510 -95 l 510 -111 q 510 -128 475 -128 l 203 -128 q 32 -128 21 -127 q -1 -125 -1 -109 z"},"v":{"x_min":0,"x_max":536,"ha":536,"o":"m 9 434 q 9 458 67 458 l 151 458 q 198 458 217 452 q 235 445 235 427 q 235 422 225 403 q 215 383 215 367 q 215 325 280 167 q 290 142 293 142 q 310 142 343 241 q 375 340 375 383 q 375 397 366 414 q 358 431 358 440 q 358 458 427 458 l 463 458 q 528 458 528 438 q 528 420 499 396 q 469 373 456 348 q 453 343 444 319 q 434 295 427 279 q 419 262 374 154 q 328 46 317 28 q 298 -3 265 -3 q 233 -3 214 24 q 212 27 176 115 q 139 202 115 264 q 92 325 78 351 q 64 376 37 397 q 9 418 9 434 z"},"O":{"x_min":0,"x_max":770,"ha":770,"o":"m 385 53 l 399 53 q 434 53 463 73 q 492 92 511 124 q 557 199 557 303 l 557 347 q 557 396 542 452 q 515 556 452 600 q 424 619 390 619 l 376 619 q 308 619 262 544 q 217 469 217 351 l 217 342 q 217 210 267 130 q 290 93 321 73 q 352 53 385 53 z m 385 -11 l 352 -11 q 296 -11 238 15 q 127 64 82 187 q 62 243 62 308 l 62 320 q 62 395 88 462 q 140 597 263 653 q 327 682 398 682 q 537 682 623 596 q 665 554 688 492 q 710 431 710 363 l 710 351 q 710 282 686 212 q 635 70 500 13 q 442 -11 385 -11 z"},"(":{"x_min":0,"x_max":378,"ha":378,"o":"m 219 62 q 236 12 286 -68 q 337 -147 337 -151 q 337 -168 313 -168 q 280 -168 226 -114 q 122 -10 90 114 q 70 191 70 255 l 70 277 q 70 279 70 281 q 70 347 88 414 q 123 543 214 638 q 281 707 310 707 l 318 707 q 335 707 335 693 q 335 687 332 678 q 328 667 305 635 q 282 603 272 586 q 234 526 212 452 q 190 377 190 265 q 190 153 219 62 z"},"C":{"x_min":0,"x_max":681,"ha":681,"o":"m 377 -8 l 359 -8 q 300 -8 241 15 q 125 61 75 180 q 47 245 47 311 l 47 346 q 47 410 75 475 q 129 606 255 656 q 312 679 372 679 q 431 679 486 666 q 540 654 546 654 l 583 657 q 608 657 618 632 q 631 597 631 531 q 631 489 609 489 q 599 489 552 528 q 504 567 487 576 q 438 603 394 603 q 302 603 248 525 q 199 457 199 333 q 199 274 216 224 q 250 121 334 86 q 365 74 416 74 q 467 74 576 137 q 608 156 617 156 q 639 156 639 130 q 639 115 616 81 q 592 48 569 35 q 545 23 485 7 q 424 -8 377 -8 z"},"W":{"x_min":0,"x_max":969,"ha":969,"o":"m 868 652 q 925 652 925 626 q 925 616 905 582 q 885 548 873 497 q 860 446 854 420 q 847 395 833 356 q 819 317 792 229 q 764 142 746 101 q 728 60 711 49 q 695 38 673 38 q 641 38 615 82 q 578 148 551 241 q 524 333 499 394 l 489 412 q 472 412 432 280 q 392 148 362 90 q 332 32 296 32 q 276 32 258 46 q 240 60 223 103 q 187 198 83 556 q 75 585 64 609 q 53 632 53 646 q 53 660 93 660 q 194 660 237 639 q 263 625 263 582 l 261 563 l 257 522 q 257 463 322 274 q 330 252 338 252 q 355 252 401 463 q 417 539 417 575 q 417 635 499 635 q 537 635 563 617 q 589 599 600 575 q 602 568 612 515 q 622 462 657 365 q 693 268 696 268 q 702 268 708 282 q 714 296 743 399 q 772 501 772 550 l 771 567 l 771 584 q 771 652 868 652 z"},"A":{"x_min":0,"x_max":708,"ha":708,"o":"m 262 276 l 265 276 l 268 277 l 320 278 q 394 278 394 283 q 394 288 385 311 q 375 334 369 357 q 363 380 348 433 q 333 486 328 505 q 324 523 322 523 q 319 523 294 433 q 268 343 266 338 q 245 290 245 285 l 245 283 q 245 276 262 276 z m 226 215 q 198 197 198 122 q 198 91 204 76 q 211 60 218 47 q 226 35 226 28 q 226 10 148 10 q 70 10 45 15 q 20 21 20 37 l 20 47 q 20 56 39 68 q 58 81 71 97 q 104 136 199 394 q 222 457 241 522 q 261 589 274 617 q 300 670 356 670 l 357 670 q 398 670 429 611 q 459 552 503 412 q 547 271 607 140 q 625 100 643 82 q 646 77 665 65 q 684 54 684 39 q 684 9 622 8 l 534 8 q 449 8 435 12 q 414 18 414 36 q 414 41 423 52 q 433 62 434 64 q 446 83 446 116 q 446 188 417 211 q 401 225 321 225 q 242 225 226 215 z"},"f":{"x_min":0,"x_max":382,"ha":382,"o":"m 276 616 q 231 616 231 522 q 231 491 250 468 q 258 458 290 436 q 322 413 322 398 q 322 391 293 378 q 263 366 254 350 q 241 324 241 230 q 241 135 248 107 q 255 79 273 56 q 292 33 292 22 q 292 12 280 7 q 269 1 221 1 l 210 1 q 199 0 187 0 l 123 0 l 98 0 q 46 0 46 23 q 46 32 67 54 q 88 76 96 109 q 104 143 104 241 q 104 340 96 359 q 89 377 70 390 q 51 403 51 418 q 51 434 70 454 q 88 475 96 502 q 118 586 152 622 q 218 692 308 692 q 358 692 389 673 q 419 653 419 629 q 419 605 408 594 q 397 583 381 583 q 365 583 332 599 q 298 616 276 616 z"},"Q":{"x_min":0,"x_max":761,"ha":761,"o":"m 215 369 l 215 332 q 215 223 259 144 q 277 110 304 88 q 331 65 364 65 l 369 66 l 375 66 q 449 66 501 144 q 545 210 545 324 l 545 333 q 545 459 498 543 q 477 582 446 601 q 415 621 381 621 l 375 621 q 303 621 259 550 q 215 480 215 369 z m 71 350 l 71 365 q 71 429 94 488 q 143 612 252 659 q 306 682 361 682 l 391 682 q 453 682 507 654 q 683 564 683 337 q 683 202 586 57 q 546 -3 546 -9 q 546 -29 603 -54 q 638 -70 683 -77 q 728 -85 741 -90 q 770 -103 770 -122 q 770 -141 742 -153 q 714 -165 676 -165 l 661 -165 q 588 -165 486 -118 q 317 -40 232 33 q 147 106 109 181 q 71 255 71 350 z"},"w":{"x_min":0,"x_max":779,"ha":779,"o":"m 21 434 q 21 460 96 460 l 152 460 q 225 460 225 409 l 223 395 l 220 381 q 218 367 218 353 q 218 298 250 214 q 263 177 279 177 q 294 177 314 261 q 319 284 325 345 q 331 406 334 412 q 351 445 402 445 q 438 445 455 437 q 491 419 500 360 q 501 354 504 333 q 507 312 511 294 q 537 183 555 183 q 573 183 594 243 q 616 304 616 354 q 616 369 612 383 l 604 409 q 604 437 624 448 q 644 459 713 459 q 756 459 756 439 l 756 429 q 756 412 742 392 q 696 327 663 233 q 610 83 595 53 q 572 7 539 7 q 507 7 479 54 q 477 59 436 166 q 395 272 390 272 q 379 272 346 180 q 313 88 298 61 q 266 5 244 5 q 204 5 183 46 q 168 76 132 185 q 97 293 81 331 q 64 368 43 393 q 21 417 21 434 z"},"-":{"x_min":0,"x_max":364,"ha":364,"o":"m 297 297 q 321 297 321 277 l 321 263 l 321 259 q 321 232 315 219 q 309 207 291 207 l 284 206 l 261 204 l 254 204 l 239 203 l 231 203 l 216 202 l 208 202 l 201 202 l 193 202 l 186 201 l 171 201 l 167 201 l 160 201 l 152 200 l 138 200 l 130 200 l 123 200 l 112 199 l 65 199 q 42 199 42 220 l 42 230 l 42 233 l 42 248 l 43 262 q 43 283 62 290 q 82 296 192 296 l 240 297 z"},"E":{"x_min":0,"x_max":641,"ha":641,"o":"m 56 37 q 56 51 83 69 q 110 86 119 124 q 128 161 128 336 q 128 512 118 548 q 108 584 94 597 q 55 635 55 636 q 55 655 86 660 q 155 671 358 671 l 380 671 q 517 671 538 657 q 571 635 571 543 q 571 523 554 523 q 553 523 519 549 q 486 575 450 586 q 415 598 346 598 q 312 598 294 563 q 269 515 269 428 q 269 398 314 398 q 345 398 359 405 q 373 412 391 434 q 409 457 414 457 q 441 457 451 434 q 460 411 460 293 q 460 235 438 235 q 416 235 386 266 q 357 297 321 297 q 285 297 276 284 q 267 271 267 234 q 267 198 279 154 q 291 109 299 97 q 316 73 359 73 q 429 73 467 87 q 505 101 542 132 q 578 162 586 162 q 599 162 599 126 q 599 90 578 43 q 570 27 558 19 q 533 1 405 1 l 340 1 q 129 1 84 11 q 56 17 56 37 z"},"s":{"x_min":0,"x_max":448,"ha":448,"o":"m 92 4 q 60 4 50 26 q 40 47 40 104 l 40 115 q 40 142 60 142 q 76 142 111 106 q 147 70 168 58 q 189 46 221 46 q 252 46 274 59 q 297 73 297 101 q 297 129 273 145 q 249 161 183 187 q 117 212 89 239 q 49 278 49 335 q 49 392 97 430 q 145 468 207 468 l 221 468 q 242 468 271 462 q 300 457 334 457 q 368 457 378 441 q 388 425 388 354 q 388 333 373 333 q 357 333 310 373 q 262 412 230 412 q 199 412 177 400 q 155 388 155 361 q 155 334 190 315 q 193 313 266 284 q 339 254 368 228 q 408 190 408 139 l 408 125 q 408 71 358 31 q 308 -9 237 -9 l 224 -9 q 208 -9 167 -2 q 125 5 123 5 l 112 5 q 102 4 92 4 z"},">":{"x_min":0,"x_max":568,"ha":568,"o":"m 82 24 l 75 24 q 64 24 64 59 q 64 93 88 110 q 112 126 253 197 q 395 268 395 271 q 395 278 265 343 q 136 407 100 430 q 65 453 65 480 q 65 522 80 522 q 91 522 139 497 q 187 471 202 464 q 218 456 273 427 q 329 397 342 391 q 355 385 414 354 q 473 323 478 319 q 505 304 505 276 l 505 267 q 505 243 482 230 q 459 216 293 131 q 126 46 107 35 q 88 24 82 24 z"},"l":{"x_min":0,"x_max":336,"ha":336,"o":"m 183 693 l 199 693 q 222 693 225 667 q 225 662 225 464 q 225 266 238 187 q 250 108 257 93 q 264 78 281 58 q 299 38 299 23 q 299 8 286 3 q 272 -2 225 -2 l 205 -2 l 195 -1 l 146 0 q 70 0 61 4 q 51 8 51 26 q 51 31 66 51 q 81 70 84 91 q 100 191 100 359 q 100 527 93 561 q 86 594 63 620 q 40 646 40 650 l 40 656 q 40 672 66 679 q 123 693 183 693 z"},"8":{"x_min":0,"x_max":558,"ha":558,"o":"m 168 190 l 168 170 q 168 124 199 87 q 229 49 274 49 l 282 49 q 320 49 345 77 q 370 105 370 150 l 370 161 q 370 207 330 251 q 313 270 281 286 q 249 302 237 302 q 215 302 192 265 q 168 229 168 190 z m 360 494 l 360 508 q 360 554 333 584 q 306 614 272 614 l 262 614 q 256 613 253 613 q 232 613 211 590 q 190 566 190 538 l 189 531 l 189 515 q 190 508 190 505 q 190 473 228 434 q 267 396 301 396 l 304 396 q 326 396 343 430 q 360 465 360 494 z m 272 -12 l 260 -12 q 169 -12 109 35 q 80 57 64 89 q 48 121 48 155 l 48 166 q 48 243 119 301 q 162 336 162 337 q 162 345 133 367 q 67 417 67 492 q 67 567 126 619 q 157 646 197 660 q 237 674 274 674 l 286 674 q 369 674 422 631 q 476 588 476 517 q 476 446 416 396 q 379 366 379 365 q 379 359 417 332 q 455 305 477 273 q 499 242 499 195 q 499 106 431 44 q 401 18 357 3 q 312 -12 272 -12 z"},"\\":{"x_min":0,"x_max":424,"ha":424,"o":"m 371 -54 l 354 -54 q 328 -54 306 -7 q 292 22 273 74 q 254 125 213 221 q 173 317 151 370 q 129 423 122 440 l 108 473 q 105 481 90 516 l 73 557 q 58 592 42 626 q 27 661 27 678 q 27 696 68 696 l 77 696 q 103 696 118 666 q 123 654 142 602 q 160 550 219 411 q 279 272 307 203 l 321 170 q 325 160 333 143 q 340 125 371 54 q 402 -18 403 -35 l 403 -42 q 403 -54 371 -54 z"},"e":{"x_min":0,"x_max":496,"ha":496,"o":"m 329 313 l 329 327 q 328 332 328 333 q 328 354 308 377 q 289 399 262 399 l 247 399 q 242 398 240 398 q 214 398 192 367 q 169 336 169 314 l 168 309 l 168 307 l 169 305 q 169 285 198 285 l 220 285 l 222 285 l 298 289 l 308 290 q 329 290 329 313 z m 272 457 l 293 457 q 359 457 406 408 q 452 360 452 295 q 452 257 425 246 q 414 241 308 231 q 202 220 199 220 q 166 211 166 180 q 166 135 200 103 q 233 70 283 70 q 307 70 369 92 q 431 113 432 113 q 450 113 450 97 q 450 60 388 26 q 326 -8 260 -8 l 249 -8 q 208 -8 167 7 q 88 38 54 114 q 33 160 33 206 l 33 229 q 33 273 53 316 q 93 404 182 439 q 226 457 272 457 z"},"b":{"x_min":0,"x_max":571,"ha":571,"o":"m 216 156 q 216 111 237 81 q 257 51 291 51 l 303 51 q 339 51 366 95 q 393 138 393 204 l 393 230 q 393 296 365 340 q 338 385 303 385 l 292 385 q 258 385 237 358 q 217 332 217 286 q 215 273 215 272 l 214 240 l 214 231 l 213 216 l 213 211 l 214 207 q 214 202 214 197 l 215 165 q 216 160 216 156 z m 80 420 l 80 492 q 80 552 71 579 q 63 607 42 623 q 21 640 21 651 q 21 673 50 684 q 99 701 161 701 l 170 701 q 198 701 204 669 q 204 666 204 547 q 204 427 226 427 q 234 427 269 439 q 304 450 341 450 q 377 450 413 432 q 448 413 473 382 q 523 318 523 228 l 523 215 q 523 123 466 59 q 408 -4 333 -4 l 321 -4 q 298 -4 245 7 q 191 19 190 19 l 136 11 q 100 11 91 33 q 82 54 82 133 l 85 245 l 84 269 q 83 293 83 304 l 82 327 q 82 339 82 351 l 81 374 z"},"%":{"x_min":0,"x_max":848,"ha":848,"o":"m 700 180 l 699 199 q 699 233 683 263 q 668 294 646 294 l 640 294 l 638 293 q 617 293 603 265 q 588 236 588 205 q 587 197 587 194 l 586 175 l 586 153 l 587 149 l 587 138 l 588 124 q 588 93 604 63 q 619 32 641 32 l 646 32 l 649 33 q 665 33 681 56 q 697 79 697 111 l 699 125 l 700 146 l 700 177 z m 156 512 l 156 479 l 156 475 l 157 464 l 158 446 q 158 411 176 386 q 193 361 213 361 l 215 361 q 239 361 253 390 q 268 419 268 450 q 269 458 269 461 l 270 479 l 270 502 l 269 506 l 269 517 l 268 532 q 268 576 249 600 q 231 624 212 624 l 209 623 q 187 623 171 593 q 156 562 156 512 z m 494 151 l 494 168 q 494 239 532 289 q 551 313 580 327 q 608 342 638 342 l 649 342 l 655 341 q 711 341 752 294 q 792 247 792 175 l 792 158 q 792 85 751 34 q 710 -16 649 -16 l 638 -16 q 577 -16 536 32 q 494 80 494 151 z m 651 651 q 651 645 636 615 q 562 466 309 59 q 265 -13 235 -13 q 206 -13 206 1 q 206 41 561 613 q 593 665 617 665 l 625 665 q 651 665 651 651 z m 202 671 l 224 671 q 280 671 321 624 q 362 576 362 504 l 362 487 q 362 411 319 362 q 277 313 212 313 l 207 313 q 143 313 103 363 q 63 412 63 480 l 63 503 q 63 571 104 621 q 145 671 202 671 z"},"m":{"x_min":0,"x_max":867,"ha":867,"o":"m 93 208 q 93 348 75 386 q 63 409 63 416 q 63 425 86 436 q 109 446 153 446 q 196 446 204 440 q 212 435 221 415 q 229 394 238 394 q 239 394 281 412 q 323 430 361 430 q 399 430 420 423 q 441 416 463 403 q 485 389 492 389 q 499 389 549 420 q 600 451 629 451 l 649 451 q 675 451 705 435 q 735 419 757 382 q 778 345 778 240 q 778 135 785 118 q 791 101 810 83 q 829 65 829 46 q 829 27 792 16 q 755 4 702 4 q 648 4 648 30 q 648 33 651 47 q 654 62 654 94 q 654 125 653 138 l 651 179 l 652 201 l 655 244 q 655 299 638 329 q 621 359 579 359 q 537 359 525 325 q 513 291 513 145 q 513 110 529 84 q 544 59 544 45 q 544 32 523 23 q 502 15 426 15 q 349 15 338 20 q 328 25 328 44 l 341 71 q 348 86 353 108 q 357 129 357 212 q 357 295 341 338 q 330 368 293 368 q 257 368 231 326 q 215 301 215 241 q 215 122 223 76 q 231 29 231 27 q 231 2 173 2 l 155 2 q 72 2 50 24 l 42 37 q 42 59 64 79 q 85 100 89 121 q 93 143 93 208 z"},"#":{"x_min":0,"x_max":562,"ha":562,"o":"m 341 404 q 341 412 300 412 l 286 412 l 270 410 l 267 410 l 252 408 q 241 408 235 396 q 209 345 209 274 l 209 270 q 209 266 215 266 l 219 265 l 221 265 l 275 271 l 282 271 l 285 272 l 294 272 q 308 272 313 281 q 328 305 328 342 q 330 352 330 356 l 341 401 z m 275 41 l 297 178 q 297 193 253 193 q 208 193 199 176 q 195 167 182 102 q 169 37 161 24 q 152 10 125 10 q 99 10 99 29 q 99 41 110 98 q 121 155 121 172 q 121 188 100 194 l 86 196 l 71 198 q 53 200 48 206 q 42 211 42 233 q 42 255 60 264 q 66 268 99 272 q 131 276 139 287 q 159 315 159 376 q 159 392 119 400 q 78 409 78 436 q 78 459 94 466 q 96 467 128 475 q 160 483 171 495 q 182 506 196 570 q 210 634 213 639 q 225 656 264 656 q 281 656 281 631 q 281 623 272 570 l 267 538 q 262 508 262 506 q 262 486 318 486 q 348 486 355 495 q 362 505 373 563 q 384 621 388 631 q 398 654 427 654 q 456 654 456 634 l 438 511 q 438 490 475 481 q 512 472 512 447 q 512 422 497 415 q 491 412 456 407 q 421 403 415 393 q 397 368 397 300 q 397 282 422 279 q 468 274 474 268 q 480 262 480 239 q 480 216 463 209 l 449 207 l 419 204 q 394 201 385 188 q 376 176 362 110 q 348 43 344 36 q 334 17 294 17 q 275 17 275 41 z"},",":{"x_min":0,"x_max":293,"ha":293,"o":"m 92 -153 l 86 -153 q 73 -153 73 -135 l 73 -131 q 73 -124 103 -88 q 133 -53 133 -19 q 133 -19 103 14 q 73 47 73 76 q 73 106 91 125 q 108 144 138 144 l 143 144 l 146 144 q 183 144 205 118 q 226 92 226 50 l 226 46 l 226 42 q 226 -16 183 -81 q 163 -110 133 -132 q 104 -153 92 -153 z"},"n":{"x_min":0,"x_max":610,"ha":610,"o":"m 255 29 q 255 5 119 5 l 91 5 l 79 5 q 35 5 35 28 q 35 51 59 70 q 83 88 89 106 q 95 125 95 221 l 96 251 q 96 346 73 374 q 50 401 50 406 q 50 428 75 436 q 120 450 167 450 q 213 450 219 444 q 226 438 233 417 q 240 396 247 396 q 254 396 277 408 q 300 420 328 431 q 355 441 397 441 q 461 441 493 396 q 515 364 515 266 q 515 168 533 119 q 538 105 559 89 q 580 73 580 60 q 580 37 555 30 q 506 15 409 15 q 374 15 374 33 q 374 34 383 53 q 393 73 393 179 q 393 285 376 322 q 359 358 337 369 q 323 375 295 375 q 247 375 229 339 q 219 320 219 222 q 219 124 226 98 q 233 73 244 53 q 255 33 255 29 z"},"h":{"x_min":0,"x_max":608,"ha":608,"o":"m 50 646 q 50 662 73 668 q 109 678 180 678 q 212 678 220 657 q 224 647 232 540 q 240 432 252 432 q 264 432 299 448 q 334 463 370 463 q 406 463 438 444 q 470 426 491 396 q 512 367 512 252 q 512 137 520 107 q 529 78 545 59 q 561 41 561 33 q 561 14 542 8 q 522 1 462 1 q 401 1 380 7 q 359 14 359 31 q 359 34 365 48 q 371 63 379 124 q 388 185 388 257 q 388 328 371 349 q 355 369 316 369 q 296 369 273 354 q 250 339 238 314 q 226 289 226 206 q 226 124 232 97 q 238 71 254 50 q 270 28 270 27 q 270 0 193 0 l 105 0 q 50 0 50 21 q 50 32 67 56 q 100 102 100 220 l 101 256 l 100 292 q 100 360 95 398 q 91 437 91 461 l 93 537 q 93 584 82 602 l 66 618 q 50 636 50 646 z"},"z":{"x_min":0,"x_max":498,"ha":498,"o":"m 207 75 q 207 61 256 61 q 306 61 334 72 q 362 82 396 114 q 431 146 447 146 q 463 146 463 129 l 463 117 q 463 89 447 32 q 441 12 431 7 q 421 1 250 1 l 223 1 l 168 0 l 99 0 q 60 0 50 7 q 40 13 40 38 q 40 62 161 219 q 283 375 283 385 q 283 400 232 400 q 181 400 158 388 q 136 375 107 347 q 79 319 63 319 q 46 319 46 355 q 46 392 59 435 q 66 460 86 460 l 98 460 l 110 459 q 123 459 135 459 l 258 458 q 410 458 421 456 q 440 451 440 422 q 440 394 412 353 q 384 312 295 198 q 207 85 207 75 z"},"B":{"x_min":0,"x_max":669,"ha":669,"o":"m 263 204 q 263 99 272 85 q 287 61 337 61 l 341 62 q 398 62 429 95 q 459 128 459 180 l 459 194 q 459 250 420 285 q 381 321 318 321 l 294 321 q 272 321 268 313 q 263 305 263 282 l 263 221 l 263 217 z m 307 612 q 277 612 271 598 q 264 584 264 527 l 264 435 q 264 382 289 382 l 296 381 l 306 381 l 313 381 q 370 381 402 413 q 434 445 434 495 l 434 503 q 434 547 405 579 q 376 611 335 611 l 329 612 z m 122 484 q 122 545 115 569 q 107 592 82 612 q 57 631 57 643 q 57 664 88 668 q 118 672 249 672 l 324 673 q 449 673 503 635 q 569 589 569 506 q 569 435 492 384 q 457 360 457 359 q 457 357 478 350 q 534 328 562 298 q 603 252 603 196 l 603 184 q 603 98 532 49 q 461 0 339 0 l 262 0 l 250 0 l 176 0 l 127 0 l 115 0 q 54 0 54 23 q 54 42 81 58 q 108 74 117 98 q 126 123 126 242 l 125 281 l 125 308 q 124 321 124 333 l 123 359 q 123 373 123 385 l 122 411 z"},"K":{"x_min":0,"x_max":736,"ha":736,"o":"m 65 635 q 65 663 92 668 q 109 671 223 671 l 289 671 q 332 671 332 658 q 332 645 312 624 q 293 603 287 580 q 268 518 268 410 q 268 380 286 380 q 314 380 406 488 q 464 556 464 587 q 464 607 458 619 l 445 642 q 445 663 474 668 q 485 671 577 671 q 668 671 668 649 q 668 644 593 585 q 564 562 481 474 q 427 417 427 389 q 427 362 581 155 q 617 106 661 70 q 705 34 705 19 q 705 0 645 0 l 624 0 l 602 0 q 485 0 465 20 q 455 29 451 70 q 446 110 426 146 q 345 288 313 288 q 292 288 284 272 q 270 243 270 187 q 270 131 281 104 q 292 76 306 51 q 321 27 321 17 q 321 0 179 0 q 110 0 94 4 q 68 10 68 34 q 68 41 92 63 q 115 86 120 95 q 132 118 132 174 l 123 538 q 123 577 109 594 l 98 604 l 85 612 q 65 628 65 635 z"},"R":{"x_min":0,"x_max":708,"ha":708,"o":"m 298 608 q 275 608 271 589 q 266 570 266 517 l 266 447 l 266 435 q 266 375 271 364 q 276 353 312 353 q 371 353 407 385 q 443 418 443 478 l 443 487 q 443 539 412 574 q 380 609 331 609 l 310 609 q 302 608 298 608 z m 129 416 q 129 534 113 580 q 107 599 82 617 q 58 636 58 653 q 58 670 229 670 l 261 670 l 327 670 q 515 670 567 558 q 582 526 582 479 q 582 397 503 342 q 470 318 470 309 q 470 303 479 290 q 488 276 527 210 q 566 145 588 116 q 610 88 634 72 q 684 39 684 31 q 684 13 667 6 q 650 0 619 0 l 602 0 q 520 0 488 32 q 456 63 414 151 q 372 238 361 252 q 333 290 289 290 q 267 290 267 220 q 267 151 282 103 q 288 83 312 55 q 335 27 335 21 q 335 0 226 0 q 116 0 90 4 q 57 9 57 37 q 57 48 81 61 q 105 74 114 90 q 123 106 123 179 l 123 196 l 124 212 q 125 223 125 246 l 125 279 q 129 397 129 416 z"},"T":{"x_min":0,"x_max":667,"ha":667,"o":"m 220 596 q 179 596 146 572 q 130 562 98 525 q 66 488 61 488 q 41 488 41 519 q 41 589 57 645 q 64 671 92 671 l 121 671 l 136 670 l 196 670 l 343 669 q 598 669 603 667 q 625 655 625 542 l 625 525 q 625 486 604 486 q 587 486 557 527 q 526 568 504 583 q 482 597 446 597 q 416 597 407 543 q 401 508 401 339 q 401 171 415 113 q 423 79 453 55 q 483 31 483 17 q 483 0 421 0 l 405 0 l 389 0 l 324 0 q 204 0 199 1 q 182 5 182 22 q 182 40 212 60 q 243 80 250 108 q 263 159 263 338 q 263 517 254 556 q 246 596 220 596 z"},"P":{"x_min":0,"x_max":633,"ha":633,"o":"m 308 334 l 320 334 q 373 334 406 370 q 438 406 438 460 l 438 479 q 438 532 406 568 q 374 604 334 604 l 326 605 l 306 605 q 277 605 271 590 q 264 575 264 508 l 264 395 q 264 353 271 344 q 279 334 308 334 z m 61 642 q 61 661 88 664 q 116 667 239 667 l 326 669 l 338 669 q 509 669 566 558 q 584 522 584 483 l 584 470 q 584 393 523 335 q 461 278 352 268 q 273 260 269 257 q 253 244 253 181 q 253 118 265 97 q 277 75 309 53 q 341 32 341 19 q 341 -2 280 -2 l 268 -1 l 218 -1 l 193 -1 q 80 -1 67 1 q 44 6 44 28 q 44 38 81 68 q 98 83 110 134 q 122 184 122 349 l 124 387 l 123 425 l 122 500 q 122 550 114 570 q 107 590 84 608 q 61 626 61 642 z"},"|":{"x_min":0,"x_max":388,"ha":388,"o":"m 174 737 l 202 737 q 231 737 233 722 q 236 707 236 441 l 236 -77 l 236 -118 l 236 -138 q 236 -176 230 -182 q 225 -188 205 -188 l 195 -188 q 161 -188 157 -178 q 152 -168 152 -120 l 152 707 q 152 737 174 737 z"},"t":{"x_min":0,"x_max":398,"ha":398,"o":"m 340 89 q 366 89 366 72 l 366 63 q 366 38 298 10 q 257 -6 218 -6 q 143 -6 118 55 q 102 93 102 212 q 102 331 93 354 q 83 378 56 391 q 28 403 28 421 q 28 431 55 444 q 82 457 86 463 q 91 469 105 503 q 120 538 142 560 q 164 582 186 582 l 194 582 q 212 582 224 546 q 243 489 246 485 q 259 470 287 463 l 342 448 q 355 440 355 417 q 355 392 305 385 q 254 379 240 356 q 227 332 227 238 q 227 144 245 110 q 258 86 310 86 q 329 89 340 89 z"},"M":{"x_min":0,"x_max":922,"ha":922,"o":"m 118 445 q 118 517 106 552 q 103 563 84 593 q 65 622 65 645 q 65 668 127 668 q 188 668 230 660 q 271 653 291 625 q 311 596 363 465 q 415 334 426 306 l 448 251 l 459 234 q 469 234 547 422 q 625 610 643 633 q 671 669 732 669 l 760 669 q 816 669 836 661 q 857 653 857 636 q 857 630 834 592 q 811 554 806 533 q 800 513 800 351 q 800 189 814 130 q 820 102 832 83 l 845 65 l 860 52 l 871 39 l 871 26 l 860 16 q 838 3 765 3 q 629 3 629 33 l 634 48 l 652 80 q 659 95 666 165 q 673 235 673 346 q 673 457 668 493 l 665 510 q 650 510 535 218 q 488 99 480 81 q 456 28 432 28 q 408 28 397 43 q 386 59 301 278 q 216 498 200 498 q 189 498 189 417 l 191 359 q 192 340 192 245 q 192 150 209 103 q 226 54 226 38 l 220 26 q 197 5 113 5 q 65 5 50 21 l 46 32 q 46 40 74 74 q 103 109 108 143 q 118 205 118 445 z"},"g":{"x_min":0,"x_max":522,"ha":522,"o":"m 119 -99 l 119 -108 q 119 -133 152 -154 q 185 -175 234 -175 l 262 -175 q 312 -175 349 -153 q 387 -131 387 -102 l 387 -99 q 387 -77 364 -61 q 342 -45 299 -45 l 292 -44 l 257 -43 l 205 -43 q 166 -43 142 -59 q 119 -76 119 -99 z m 174 263 q 174 232 193 205 q 211 178 237 178 l 242 178 q 265 178 282 203 q 299 229 299 260 l 300 267 l 300 278 l 300 304 q 299 314 299 321 q 299 352 281 378 q 263 405 237 405 l 235 405 q 209 405 191 377 q 173 350 173 307 l 173 281 q 174 269 174 263 z m 236 -238 q 236 -238 235 -238 q 113 -238 59 -167 q 39 -142 39 -116 q 39 -90 66 -52 q 94 -14 94 -10 q 94 -7 72 19 q 49 45 49 77 q 49 94 78 124 q 107 154 107 160 q 107 166 93 183 q 78 200 74 208 q 57 234 57 271 q 57 309 75 344 q 93 378 120 401 q 147 424 196 439 q 244 455 276 455 l 306 455 q 417 455 474 433 q 486 428 486 422 q 486 399 452 392 q 418 385 418 360 l 420 350 q 423 333 423 326 q 423 287 407 249 q 365 150 236 137 q 188 132 179 127 q 156 114 156 96 q 156 77 193 69 q 204 67 291 61 q 377 54 408 37 q 472 4 472 -68 q 472 -140 419 -184 q 354 -238 251 -238 z"},"j":{"x_min":0,"x_max":316,"ha":316,"o":"m 50 -208 l 33 -208 q 7 -208 -7 -197 q -21 -185 -21 -167 q -21 -150 3 -137 q 27 -124 62 -124 q 96 -124 110 -75 q 118 -49 118 42 l 118 163 l 117 201 q 116 210 116 220 q 116 291 105 321 q 94 352 74 378 q 55 403 55 413 q 55 431 80 439 q 129 455 197 455 l 206 455 q 230 455 235 443 q 243 424 243 374 l 243 364 l 242 354 l 242 206 q 242 37 239 -13 q 235 -62 213 -107 q 192 -151 147 -179 q 103 -208 50 -208 z m 96 602 q 96 602 97 625 q 97 646 119 662 q 141 677 167 677 l 182 677 q 208 677 227 661 q 246 645 246 616 l 246 612 q 246 586 229 566 q 212 546 182 546 l 177 545 l 160 545 q 153 547 148 547 q 130 547 114 563 q 97 580 97 597 z"},"i":{"x_min":0,"x_max":320,"ha":320,"o":"m 72 1 q 36 1 36 23 l 36 28 q 36 39 61 56 q 85 73 93 100 q 102 126 102 227 q 102 327 93 347 q 84 366 61 383 q 37 399 37 416 q 37 432 59 438 q 123 455 198 455 q 222 455 226 433 q 226 430 226 287 q 226 143 237 97 q 241 78 263 56 q 285 34 285 25 l 285 20 q 285 1 253 1 l 204 1 l 197 1 l 153 1 l 124 1 z m 167 675 q 195 675 214 659 q 233 643 233 618 l 233 606 q 232 599 232 590 q 232 581 215 564 q 197 546 176 546 q 166 544 164 544 l 149 544 q 142 546 137 546 q 118 546 101 563 q 84 580 84 604 l 84 613 q 84 638 102 656 q 120 673 142 673 l 159 675 z"},"y":{"x_min":0,"x_max":540,"ha":540,"o":"m 245 430 q 245 427 236 408 q 226 389 226 375 q 226 329 283 195 q 294 167 299 167 q 308 167 316 187 q 371 312 371 380 q 371 397 364 413 l 351 443 q 351 459 387 459 l 417 459 l 432 459 q 515 459 515 437 q 515 422 476 380 q 458 359 429 298 q 400 236 331 60 q 261 -116 243 -146 q 226 -177 203 -191 q 181 -206 149 -206 q 117 -206 87 -188 q 58 -170 58 -147 q 58 -122 107 -113 q 156 -104 174 -85 q 211 -47 211 7 q 211 62 127 252 q 97 321 84 343 l 55 386 q 31 420 31 426 q 31 447 62 455 q 83 459 164 459 q 245 459 245 430 z"},"@":{"x_min":0,"x_max":765,"ha":765,"o":"m 434 426 l 422 426 q 383 426 352 372 q 312 304 312 248 l 312 226 q 313 219 313 216 q 313 180 344 180 l 346 181 q 387 181 420 238 q 464 313 464 382 l 464 392 q 464 426 434 426 z m 333 152 q 284 152 261 179 q 238 207 238 243 q 238 317 276 375 q 321 443 384 443 l 425 442 q 444 442 461 445 l 500 450 q 523 450 530 445 q 544 434 544 399 l 542 377 l 537 354 l 532 330 q 523 282 523 257 q 523 233 531 218 q 539 203 553 203 q 587 203 619 251 q 651 299 651 359 q 651 419 633 457 q 576 579 425 579 q 303 579 220 489 q 188 454 164 399 q 141 345 141 282 q 141 161 210 89 q 280 18 390 18 q 458 18 530 42 q 576 59 593 59 q 603 59 603 53 l 598 43 q 576 19 504 -6 q 431 -31 364 -31 q 297 -31 237 -7 q 177 18 138 60 q 54 150 54 284 q 54 442 167 553 q 268 651 430 651 q 500 651 556 626 q 718 551 718 375 q 718 337 704 291 q 690 246 657 208 q 602 146 530 146 q 492 146 464 167 q 437 188 433 188 q 429 188 392 170 q 354 152 333 152 z"},".":{"x_min":0,"x_max":292,"ha":292,"o":"m 142 -9 q 109 -9 89 14 q 69 38 69 64 l 69 74 q 69 104 89 123 q 109 143 143 143 l 146 143 q 179 143 201 122 q 222 100 222 70 l 222 57 q 222 30 204 11 q 185 -7 165 -7 l 152 -9 z"},"p":{"x_min":0,"x_max":583,"ha":583,"o":"m 403 256 q 403 303 377 345 q 351 387 316 387 l 305 387 q 270 387 244 356 q 228 337 228 293 l 227 280 l 225 235 l 225 199 l 225 194 l 226 181 l 226 171 q 227 163 227 158 q 227 120 241 100 q 264 65 301 65 l 316 65 q 352 65 377 107 q 403 148 403 200 l 404 210 l 404 241 q 403 252 403 256 z m 33 -187 q 33 -173 52 -154 q 72 -135 78 -116 q 93 -67 93 12 l 95 50 q 96 76 96 88 l 97 114 q 97 126 97 140 l 98 152 q 98 166 98 185 l 98 230 q 98 319 90 344 q 82 368 63 385 q 45 401 45 415 q 45 429 65 438 q 119 459 193 459 q 207 459 212 444 q 222 416 224 416 q 232 416 253 428 q 313 462 363 462 q 432 462 477 411 q 505 379 520 339 q 535 298 535 260 l 535 246 q 535 142 468 69 q 438 37 398 19 q 357 0 320 0 q 283 0 263 7 q 243 13 236 13 q 215 13 215 -79 q 215 -109 227 -129 q 238 -148 264 -165 q 290 -182 290 -198 q 290 -214 248 -214 l 236 -214 l 224 -213 l 185 -213 q 90 -213 61 -209 q 33 -206 33 -187 z"},"X":{"x_min":0,"x_max":719,"ha":719,"o":"m 684 26 q 684 0 585 0 l 562 1 l 519 0 q 406 0 406 21 q 406 36 417 53 q 428 70 428 83 q 428 110 368 205 q 339 251 324 251 q 310 251 271 188 q 232 126 232 96 q 232 66 245 47 q 258 27 258 17 q 258 1 145 1 q 32 1 32 20 q 32 43 78 68 q 124 92 153 127 q 282 283 282 317 q 282 337 169 496 q 125 559 105 579 q 44 643 44 649 q 44 670 174 670 q 196 670 218 670 l 260 671 l 280 671 q 328 671 328 648 q 328 643 314 626 q 301 609 301 602 q 301 567 353 481 q 377 442 388 442 q 410 442 456 525 q 475 559 475 592 q 475 603 463 622 q 451 641 451 644 q 451 662 475 667 q 492 671 569 671 q 646 671 655 666 q 664 662 664 646 q 664 630 620 603 q 576 576 543 535 q 442 410 442 379 q 442 348 504 257 q 566 167 593 134 q 621 101 652 74 q 684 48 684 26 z"},"*":{"x_min":0,"x_max":465,"ha":465,"o":"m 146 411 q 105 411 105 431 q 105 457 129 478 q 143 490 143 502 q 143 503 109 525 q 76 547 76 575 q 76 603 109 603 q 121 603 163 580 q 192 563 202 563 q 205 563 205 566 l 197 632 q 197 677 242 677 l 251 677 q 279 677 279 645 l 265 573 q 265 557 277 557 q 277 557 309 574 q 340 591 356 591 q 390 591 390 572 q 390 527 350 512 q 320 501 320 489 q 320 483 335 467 q 350 451 350 425 q 350 402 316 402 l 280 405 q 269 399 267 399 l 257 397 l 254 397 l 223 402 q 207 399 204 399 l 194 400 l 189 402 q 188 402 181 407 q 175 412 164 411 q 153 411 146 411 z"},"Y":{"x_min":0,"x_max":680,"ha":680,"o":"m 271 228 q 271 275 143 499 q 110 556 88 578 q 32 637 32 647 l 38 655 q 55 670 200 670 l 232 670 q 297 670 297 648 q 297 645 285 630 q 273 615 273 598 q 273 551 347 407 q 369 363 376 363 q 396 363 447 480 q 479 554 479 592 q 479 606 467 625 q 455 644 455 648 q 455 670 516 670 l 548 670 q 612 670 637 663 q 653 658 653 642 q 653 626 616 601 q 579 577 563 553 q 546 530 463 381 q 412 289 412 210 q 412 131 431 89 q 439 71 464 53 q 489 36 489 18 q 489 0 326 0 l 246 0 q 193 0 193 19 q 193 30 220 50 q 247 70 254 91 q 271 139 271 228 z"},"c":{"x_min":0,"x_max":490,"ha":490,"o":"m 272 -9 l 249 -9 q 207 -9 167 9 q 85 44 53 126 q 36 167 36 205 l 36 229 q 36 271 54 315 q 89 400 171 440 q 215 461 254 461 l 276 461 q 379 461 415 439 q 450 418 450 370 q 450 352 438 339 q 427 325 412 325 q 396 325 352 361 q 307 397 264 397 q 222 397 190 347 q 167 308 167 235 q 167 162 212 112 q 246 75 300 75 q 329 75 373 89 q 416 104 434 104 q 452 104 452 91 q 452 58 395 25 q 337 -9 272 -9 z"},"!":{"x_min":0,"x_max":328,"ha":328,"o":"m 172 -8 l 164 -8 q 135 -8 112 11 q 90 30 90 65 l 90 68 q 90 96 107 116 q 125 136 156 136 l 168 136 q 195 136 217 117 q 238 99 238 74 l 240 60 l 240 57 q 240 26 219 9 q 199 -8 172 -8 z m 237 623 l 237 603 l 237 598 q 237 449 197 241 q 190 202 162 202 q 136 202 131 243 q 93 519 93 612 l 93 626 q 93 650 115 664 q 137 678 168 678 l 187 678 q 237 678 237 623 z"},"/":{"x_min":0,"x_max":420,"ha":420,"o":"m 61 -62 l 43 -62 q 15 -62 15 -46 q 15 -35 37 19 q 217 471 305 664 q 321 699 354 699 l 362 699 q 399 699 399 683 q 399 668 378 619 q 253 324 247 309 l 233 275 q 220 245 215 233 l 191 174 q 185 160 151 76 q 117 -8 108 -28 q 100 -47 90 -55 q 81 -62 61 -62 z"},"[":{"x_min":0,"x_max":378,"ha":378,"o":"m 225 -64 q 234 -87 283 -101 q 332 -114 332 -130 l 332 -138 q 332 -154 313 -154 l 268 -154 l 256 -154 q 244 -153 232 -153 l 220 -153 l 195 -153 q 120 -153 109 -138 q 99 -124 99 -46 l 99 613 q 99 683 112 692 q 125 702 216 702 l 252 702 l 275 703 l 309 703 q 331 703 331 684 q 331 664 288 650 q 245 637 236 628 q 228 620 222 594 q 210 547 210 261 q 210 -24 225 -64 z"},"6":{"x_min":0,"x_max":557,"ha":557,"o":"m 279 346 l 268 346 q 234 346 212 315 q 189 285 189 229 l 189 202 q 189 143 216 96 q 243 50 283 50 l 287 50 q 317 50 341 82 q 365 114 365 161 l 366 170 l 366 184 l 366 202 q 366 256 342 301 q 318 346 279 346 z m 462 602 q 462 565 344 565 q 286 565 245 522 q 205 479 205 426 q 205 399 229 399 l 239 400 l 258 404 q 268 405 300 405 q 332 405 373 389 q 452 358 484 277 q 499 238 499 193 q 499 108 448 54 q 420 24 382 7 q 344 -10 305 -10 l 281 -10 q 238 -10 192 12 q 102 54 64 161 q 43 220 43 277 l 43 304 q 43 444 135 547 q 177 594 237 623 q 296 651 362 651 l 373 651 q 412 651 437 636 q 462 622 462 602 z"},"r":{"x_min":0,"x_max":440,"ha":440,"o":"m 38 22 q 38 37 59 52 q 81 68 89 91 q 97 114 97 213 q 97 312 89 333 q 82 353 61 373 q 41 394 41 405 q 41 420 67 430 q 118 450 175 450 l 184 450 q 208 450 219 419 q 230 389 240 389 q 245 389 262 405 q 311 450 344 450 l 352 450 q 376 450 396 432 q 415 414 415 389 q 415 363 398 346 q 382 329 357 329 q 350 329 328 339 q 306 350 293 350 q 258 350 237 308 q 222 279 222 208 q 222 137 236 104 q 241 92 266 65 q 292 39 292 23 q 292 0 147 0 l 88 0 l 79 0 q 38 0 38 22 z"},"2":{"x_min":0,"x_max":552,"ha":552,"o":"m 57 42 q 57 66 103 125 q 119 146 193 228 q 268 309 300 362 q 333 414 333 457 q 333 500 309 531 q 285 561 240 561 q 195 561 153 511 q 110 462 88 462 q 66 462 66 502 q 66 528 79 556 q 93 583 122 605 q 182 650 272 650 q 362 650 418 600 q 474 551 474 469 q 474 405 429 345 q 397 302 304 223 q 210 143 210 126 q 210 105 279 105 q 385 105 438 131 q 464 145 480 145 q 496 145 496 100 q 496 56 478 29 q 460 2 411 2 l 380 3 l 333 3 l 160 10 q 159 10 130 9 l 103 8 q 57 8 57 42 z"},"{":{"x_min":0,"x_max":386,"ha":386,"o":"m 141 388 l 132 541 q 132 661 217 693 q 259 708 297 708 l 309 708 q 328 708 328 697 q 328 685 298 661 q 269 636 255 610 q 242 584 242 512 q 242 511 243 488 l 244 464 q 245 441 245 418 q 245 361 228 332 q 210 303 176 286 q 164 280 164 277 q 164 274 177 268 q 190 262 206 250 q 221 239 233 212 q 245 186 245 122 l 244 99 q 241 28 241 -3 q 241 -34 255 -61 q 270 -88 299 -112 q 328 -135 328 -146 q 328 -160 312 -160 l 300 -160 q 217 -160 173 -118 q 132 -80 132 0 q 132 36 136 76 q 141 116 141 158 q 141 199 128 218 q 116 236 88 252 q 60 268 60 275 q 60 288 89 304 q 119 320 130 337 q 141 354 141 388 z"},"9":{"x_min":0,"x_max":556,"ha":556,"o":"m 267 286 l 278 286 q 312 286 334 316 q 356 346 356 397 l 356 428 q 356 493 329 538 q 301 582 263 582 l 259 582 q 229 582 206 550 q 182 518 182 470 l 181 461 l 180 448 l 180 430 q 180 376 205 331 q 229 286 267 286 z m 48 430 l 48 442 q 48 522 103 581 q 130 610 169 626 q 208 643 246 643 l 258 643 q 307 643 352 622 q 444 579 482 464 q 501 408 501 348 l 501 321 q 501 257 476 191 q 423 52 292 1 q 236 -21 178 -21 l 167 -21 q 127 -21 103 -6 q 79 9 79 29 q 79 39 93 47 q 121 63 188 63 q 254 63 299 105 q 344 147 344 207 q 344 232 307 232 l 257 229 q 164 229 104 290 q 77 318 62 356 q 48 394 48 430 z"}," ":{"x_min":0,"x_max":271,"ha":271,"o":""},"I":{"x_min":0,"x_max":398,"ha":398,"o":"m 92 609 q 53 637 53 648 q 53 671 81 671 l 143 671 l 154 671 l 284 671 l 315 671 q 345 671 345 653 q 345 634 317 615 q 290 595 284 580 q 270 541 270 463 l 269 429 l 269 315 q 269 135 279 104 q 290 73 318 54 q 347 36 347 24 q 347 5 330 1 q 325 0 193 0 l 161 0 l 140 0 l 108 0 q 55 0 55 19 q 55 38 83 57 q 111 77 118 101 q 130 147 130 332 q 130 517 121 555 q 113 594 92 609 z"},"H":{"x_min":0,"x_max":798,"ha":798,"o":"m 260 418 q 260 384 286 376 q 301 372 396 372 q 492 372 509 385 q 526 399 526 439 q 526 562 497 598 q 468 635 468 637 q 468 654 505 658 q 522 660 635 660 q 748 660 748 641 q 748 618 721 600 q 694 582 686 554 q 679 526 679 431 q 679 336 678 320 l 677 297 q 676 262 676 250 q 676 133 691 91 q 698 73 714 62 q 758 33 758 30 q 758 12 741 5 q 732 1 700 1 l 677 1 q 569 1 512 9 q 482 13 482 32 q 482 35 500 58 q 518 81 524 102 q 540 151 540 260 q 540 316 510 324 q 501 326 411 326 q 320 326 302 320 q 272 310 272 251 q 272 192 283 142 q 293 92 311 65 q 328 38 328 33 q 328 17 294 13 q 285 12 180 12 q 75 12 62 19 q 48 25 48 47 q 48 57 77 72 q 105 87 113 113 q 121 138 121 298 l 122 322 l 124 394 q 124 516 107 574 q 100 598 73 614 q 45 631 45 652 q 45 669 94 669 q 299 669 316 653 q 320 650 320 645 q 319 634 303 614 q 278 586 272 554 q 260 491 260 418 z"},"4":{"x_min":0,"x_max":566,"ha":566,"o":"m 150 240 l 214 240 q 284 240 289 251 q 294 262 294 325 l 294 403 l 295 411 l 295 434 l 295 448 l 295 471 q 295 497 293 497 l 292 497 q 289 497 203 372 q 117 248 117 244 q 117 240 150 240 z m 302 -23 q 235 -23 235 26 q 235 40 254 61 q 274 83 274 109 q 274 136 254 146 q 233 156 164 156 q 95 156 63 169 q 32 182 32 210 l 32 220 q 32 247 66 299 q 151 429 291 604 q 324 646 367 646 q 411 646 420 630 q 430 614 430 566 l 428 470 q 428 323 438 289 q 444 272 467 257 q 491 241 498 231 q 505 221 505 194 q 505 188 485 172 q 465 155 464 150 q 458 134 458 94 q 458 86 467 70 q 475 54 475 31 q 475 1 432 -13 q 399 -23 325 -23 z"},"~":{"x_min":0,"x_max":573,"ha":573,"o":"m 179 366 l 190 366 q 221 366 298 332 q 376 297 398 297 q 420 297 453 330 q 486 363 488 363 q 521 363 521 329 q 521 294 481 254 q 441 214 400 214 l 383 214 q 350 214 279 248 q 208 282 181 282 q 153 282 129 256 q 90 215 86 215 q 54 215 54 251 q 54 286 94 326 q 133 366 179 366 z"},"D":{"x_min":0,"x_max":757,"ha":757,"o":"m 543 327 l 543 344 q 543 403 527 455 q 496 558 417 594 q 385 610 346 610 l 339 610 q 279 610 272 581 q 272 579 272 453 l 272 316 l 271 294 q 271 268 271 241 l 271 218 q 271 207 271 196 l 271 173 q 271 166 271 159 l 270 144 q 270 91 286 76 q 302 62 345 62 q 480 62 527 210 q 543 262 543 327 z m 98 607 q 56 633 56 644 q 56 663 80 667 q 104 671 240 671 l 301 672 l 339 672 q 591 672 669 476 q 693 416 693 342 q 693 270 669 204 q 620 72 485 22 q 421 -1 341 -1 l 280 -1 l 268 0 l 219 0 q 99 0 76 3 q 53 7 53 24 q 53 41 83 56 q 114 71 122 100 q 135 145 135 331 q 135 517 126 556 q 118 595 98 607 z"},"^":{"x_min":0,"x_max":555,"ha":555,"o":"m 493 326 q 493 315 454 315 l 446 315 q 421 315 395 355 q 368 395 325 480 q 283 565 276 565 q 274 565 251 521 q 228 477 193 416 q 158 354 156 352 q 130 316 96 316 q 61 316 61 328 q 61 334 84 375 l 107 418 q 114 431 119 440 l 126 454 q 130 461 136 472 q 142 482 149 495 q 155 508 157 512 l 173 540 q 214 621 231 646 q 247 670 272 670 l 280 670 q 311 670 332 636 q 366 579 430 456 q 493 333 493 331 z"},"0":{"x_min":0,"x_max":561,"ha":561,"o":"m 182 298 l 183 262 q 183 168 209 110 q 236 51 271 51 l 282 51 q 317 51 342 107 q 367 163 367 261 l 368 276 l 369 298 l 369 329 q 369 527 312 577 q 296 590 280 590 l 269 590 q 234 590 209 534 q 184 478 184 388 q 183 373 183 366 l 182 329 l 182 306 z m 279 -13 l 261 -13 q 218 -13 175 13 q 89 63 60 186 q 46 242 46 305 l 46 316 l 46 327 q 46 388 61 449 q 92 578 182 629 q 226 654 273 654 l 282 654 q 385 654 447 563 q 477 519 491 458 q 505 397 505 337 l 505 315 q 505 249 489 188 q 457 66 376 16 q 331 -13 279 -13 z"},"F":{"x_min":0,"x_max":607,"ha":607,"o":"m 424 232 q 411 232 395 252 q 378 272 362 280 q 346 287 316 287 q 287 287 276 278 q 266 269 266 209 q 266 98 308 55 q 338 24 338 21 q 338 3 294 3 l 278 3 q 149 3 86 14 q 51 20 51 39 q 51 51 83 71 q 115 92 120 100 q 129 117 129 307 q 129 497 120 540 q 110 583 92 602 q 61 632 61 633 q 61 656 90 661 q 158 671 375 671 l 412 671 l 430 670 q 447 670 465 670 q 539 670 553 651 q 575 624 575 543 l 575 529 q 575 514 558 514 q 550 514 519 541 q 489 568 468 577 q 422 597 356 597 q 313 597 299 570 q 269 516 269 427 q 269 413 282 402 q 294 390 325 390 q 356 390 376 408 q 420 449 426 449 q 448 449 455 427 q 461 406 461 342 q 461 279 458 260 q 452 232 424 232 z"},"`":{"x_min":0,"x_max":383,"ha":383,"o":"m 108 699 l 120 699 q 152 699 193 653 q 270 567 270 539 l 270 537 q 270 523 249 523 l 238 523 q 219 523 124 599 q 65 646 65 665 l 65 672 q 65 677 79 688 q 94 699 108 699 z"},"k":{"x_min":0,"x_max":590,"ha":590,"o":"m 217 513 q 217 285 249 285 q 278 285 301 323 q 338 382 338 407 q 338 432 364 440 q 381 446 455 446 q 528 446 528 425 q 528 420 452 364 q 375 308 375 281 q 375 246 476 122 q 498 95 527 78 q 577 47 577 24 q 577 0 524 0 q 397 0 374 21 q 361 32 352 68 q 342 104 310 151 q 278 198 254 198 q 233 198 233 144 q 233 119 248 86 q 262 53 262 41 q 262 25 233 20 q 205 15 110 15 q 54 15 54 37 q 54 45 62 57 q 81 84 86 136 q 92 188 92 351 q 92 514 85 557 q 78 600 69 612 q 68 614 53 627 q 38 640 38 646 l 38 658 l 44 667 q 70 690 179 690 q 201 690 210 685 q 220 680 220 662 q 220 643 219 620 l 217 585 l 217 549 z"},"u":{"x_min":0,"x_max":598,"ha":598,"o":"m 559 57 q 559 34 537 24 q 480 0 421 0 q 394 0 382 21 q 370 42 358 42 l 335 27 q 286 -3 247 -3 l 234 -3 q 152 -3 111 63 q 85 106 85 215 q 85 324 74 366 q 69 384 49 398 q 30 413 30 427 q 30 442 48 449 q 66 455 154 455 q 189 455 199 440 q 208 426 208 368 l 210 268 q 210 149 227 109 q 243 70 284 70 q 312 70 336 83 q 360 96 372 121 q 383 146 383 231 q 383 316 374 340 q 365 365 353 388 q 341 412 341 415 q 341 438 375 446 q 430 458 486 458 q 504 458 509 442 q 514 425 514 370 l 507 208 q 507 146 515 124 q 523 102 541 84 q 559 66 559 57 z"},"]":{"x_min":0,"x_max":378,"ha":378,"o":"m 155 600 q 146 634 96 649 q 46 664 46 686 q 46 703 74 703 l 107 703 l 119 703 q 143 702 143 702 l 192 702 q 259 702 268 690 q 278 678 278 620 l 279 597 l 279 218 q 279 -109 271 -128 q 264 -147 236 -151 q 225 -153 127 -153 l 82 -154 l 70 -154 q 46 -154 46 -135 q 46 -113 96 -100 q 146 -87 153 -59 q 167 -9 167 273 q 167 556 155 600 z"},"U":{"x_min":0,"x_max":736,"ha":736,"o":"m 351 -11 q 279 -11 225 19 q 170 49 144 94 q 118 140 113 193 q 107 246 107 398 q 107 551 101 574 q 94 597 66 609 q 39 621 39 636 q 39 658 58 665 q 77 671 124 671 l 256 671 q 302 671 302 652 q 302 643 284 615 q 266 587 258 550 q 250 513 250 412 l 249 354 q 248 295 248 274 q 248 100 344 69 q 366 62 404 62 q 441 62 473 81 q 504 101 522 133 q 552 185 552 336 q 552 487 539 557 q 533 583 515 615 q 497 646 497 649 q 497 671 595 671 l 632 671 q 705 671 705 654 q 705 631 689 617 q 647 580 646 577 q 636 549 636 391 q 636 233 629 184 q 613 66 509 15 q 455 -11 394 -11 z"},"o":{"x_min":0,"x_max":562,"ha":562,"o":"m 279 50 l 292 50 q 332 50 354 90 q 382 145 382 219 l 382 224 l 382 230 q 382 310 354 362 q 326 414 282 414 l 277 414 q 233 414 208 366 q 182 318 182 245 l 182 233 q 182 156 210 103 q 239 50 279 50 z m 522 255 l 522 239 q 522 133 445 60 q 377 -4 274 -4 q 170 -4 111 52 q 42 119 42 209 l 42 225 q 42 273 62 320 q 99 411 194 450 q 238 468 285 468 l 301 468 q 397 468 461 403 q 490 375 506 334 q 522 293 522 255 z"},"N":{"x_min":0,"x_max":772,"ha":772,"o":"m 191 351 q 191 160 222 88 q 231 68 241 51 q 251 33 251 26 l 247 17 q 230 1 109 1 q 66 1 51 10 q 37 19 37 35 q 37 36 79 66 q 104 83 110 107 q 116 130 116 320 q 116 510 107 541 q 99 572 73 601 q 46 629 46 650 q 46 667 120 667 q 193 667 221 657 q 248 648 268 628 q 288 608 430 414 q 572 220 582 220 q 592 220 592 358 q 592 564 550 612 l 540 624 q 522 640 522 645 q 522 671 595 671 l 619 671 q 677 671 703 666 q 729 661 729 644 q 729 634 704 600 q 679 567 674 535 q 666 471 666 269 q 666 66 663 49 q 657 13 636 13 q 585 13 533 66 q 509 90 357 293 q 206 496 196 496 q 190 496 190 445 l 191 398 z"},"+":{"x_min":0,"x_max":573,"ha":573,"o":"m 506 253 q 506 234 400 234 q 335 234 331 231 q 328 229 328 139 q 328 50 323 42 q 318 35 285 35 q 252 35 249 44 q 245 54 245 138 q 245 223 241 229 q 238 234 163 234 q 88 234 81 235 q 66 238 66 256 l 66 284 q 66 309 73 312 q 80 315 160 315 q 241 315 244 321 q 245 323 245 410 q 245 496 250 503 q 255 511 290 511 l 308 511 q 325 511 328 493 q 329 487 329 405 q 329 322 332 319 q 335 316 412 316 q 488 316 498 314 q 507 312 507 290 l 507 281 q 506 262 506 253 z"},"G":{"x_min":0,"x_max":746,"ha":746,"o":"m 458 287 q 458 303 489 307 q 520 311 615 311 q 711 311 711 283 q 711 272 698 261 q 669 235 663 222 q 657 209 651 131 q 646 52 626 38 q 607 23 563 17 q 401 -9 390 -9 l 369 -9 q 310 -9 249 14 q 188 38 140 87 q 47 182 47 328 q 47 474 137 572 q 182 622 247 650 q 312 679 380 679 l 401 679 q 451 679 506 665 q 562 652 571 652 l 586 653 l 599 655 q 646 655 646 533 q 646 495 623 495 q 616 495 573 530 q 531 565 514 575 q 459 606 412 606 q 365 606 328 593 q 291 578 260 542 q 200 472 200 354 q 200 233 250 156 q 276 116 315 91 q 354 65 397 65 q 441 65 467 87 q 492 108 492 162 q 492 216 469 263 q 458 284 458 287 z"},"q":{"x_min":0,"x_max":585,"ha":585,"o":"m 289 408 l 280 408 q 242 408 213 364 q 185 319 185 253 l 185 232 q 185 167 214 118 q 244 68 282 68 l 293 68 q 330 68 352 100 q 375 132 375 199 q 376 212 376 216 l 377 246 l 376 250 q 376 332 356 370 q 335 408 289 408 z m 572 -180 q 572 -200 552 -206 q 532 -211 502 -211 q 473 -211 449 -212 l 414 -214 l 379 -214 q 325 -214 325 -191 q 325 -182 344 -164 q 363 -146 370 -128 q 378 -111 378 -73 q 378 22 352 22 q 347 22 331 17 l 308 9 q 278 0 244 0 q 210 0 174 19 q 101 55 70 134 q 54 175 54 208 l 54 234 q 54 333 111 400 q 135 428 176 448 q 217 468 255 468 l 267 468 q 290 468 336 457 q 382 445 388 445 q 395 445 420 451 q 445 458 469 458 q 510 458 510 364 q 510 352 507 306 q 504 260 504 199 l 508 65 l 512 -51 q 512 -96 520 -114 q 527 -132 550 -152 q 572 -172 572 -180 z"},"d":{"x_min":0,"x_max":594,"ha":594,"o":"m 375 257 l 374 280 q 374 341 348 373 q 323 405 283 405 l 275 405 q 238 405 215 372 q 184 327 184 249 l 184 221 q 184 148 214 101 q 237 64 281 64 l 285 64 q 332 64 354 100 q 375 136 375 218 l 375 252 z m 540 38 q 540 20 509 12 q 453 -1 406 -1 q 382 -1 368 16 q 355 34 352 34 q 349 34 328 23 q 308 12 284 3 q 261 -6 216 -6 q 108 -6 68 115 q 54 159 54 195 l 54 209 q 54 318 120 393 q 154 432 190 447 q 227 462 271 462 l 318 459 q 353 459 353 557 q 353 592 328 624 q 302 655 302 660 q 302 666 311 672 q 341 693 439 693 l 450 693 q 489 693 496 656 q 504 610 504 528 l 504 434 l 503 359 l 502 347 q 502 334 502 322 l 501 297 q 500 283 500 265 q 499 246 499 173 q 499 100 519 72 q 540 43 540 38 z"},"1":{"x_min":0,"x_max":536,"ha":536,"o":"m 211 333 q 211 493 199 514 q 187 535 144 540 q 101 545 101 562 q 101 580 126 592 q 133 595 179 608 q 225 621 262 634 q 300 647 317 647 q 334 647 340 628 q 347 609 347 529 l 346 497 l 345 486 l 344 431 l 344 385 l 344 363 q 344 346 344 329 q 344 149 353 116 q 363 83 391 64 q 435 35 435 17 q 435 0 396 0 l 334 0 l 324 0 l 253 0 l 212 0 l 171 0 q 112 0 112 21 q 112 39 148 59 q 183 79 197 107 q 211 134 211 204 z"},"5":{"x_min":0,"x_max":551,"ha":551,"o":"m 89 7 q 50 32 50 73 q 50 113 89 113 q 108 113 157 79 q 205 45 251 45 q 297 45 333 93 q 357 126 357 183 q 357 211 341 240 q 325 268 295 288 q 266 308 192 312 q 119 317 108 321 q 84 332 84 375 q 84 418 106 539 q 115 588 131 611 q 146 635 252 635 q 292 635 346 638 l 393 642 q 436 646 438 646 q 475 646 475 623 q 475 566 450 548 q 426 531 333 531 q 332 531 301 532 l 270 533 q 212 533 192 512 q 165 484 165 434 q 165 416 170 409 q 174 403 200 403 l 230 404 q 355 404 424 349 q 492 295 492 197 q 492 149 471 106 q 450 63 413 32 q 341 -28 228 -28 q 144 -28 89 7 z"}}}
